<svg xmlns="http://www.w3.org/2000/svg" width="54.938" height="56.938" viewBox="0 0 54.938 56.938">
  <metadata><?xpacket begin="﻿" id="W5M0MpCehiHzreSzNTczkc9d"?>
<x:xmpmeta xmlns:x="adobe:ns:meta/" x:xmptk="Adobe XMP Core 5.6-c138 79.159824, 2016/09/14-01:09:01        ">
   <rdf:RDF xmlns:rdf="http://www.w3.org/1999/02/22-rdf-syntax-ns#">
      <rdf:Description rdf:about=""/>
   </rdf:RDF>
</x:xmpmeta>
                                                                                                    
                                                                                                    
                                                                                                    
                                                                                                    
                                                                                                    
                                                                                                    
                                                                                                    
                                                                                                    
                                                                                                    
                                                                                                    
                                                                                                    
                                                                                                    
                                                                                                    
                                                                                                    
                                                                                                    
                                                                                                    
                                                                                                    
                                                                                                    
                                                                                                    
                                                                                                    
                           
<?xpacket end="w"?></metadata>
<defs>
    <style>
      .cls-1 {
        fill-rule: evenodd;
      }
    </style>
  </defs>
  <path id="Forma_1" data-name="Forma 1" class="cls-1" d="M54.885,42.008a1,1,0,0,0-.813-0.689L46.3,40.228l-3.468-6.792a1.038,1.038,0,0,0-1.777,0l-3.468,6.792-7.768,1.091a1,1,0,0,0-.544,1.722l5.6,5.277-1.32,7.439a1,1,0,0,0,.387.98,0.992,0.992,0,0,0,1.048.089l6.956-3.534,6.956,3.534a1,1,0,0,0,1.047-.089,1,1,0,0,0,.387-0.98l-1.319-7.439,5.6-5.277A1.008,1.008,0,0,0,54.885,42.008Zm-7.629,5.22a1,1,0,0,0-.3.9l1.063,6L42.4,51.272a0.994,0.994,0,0,0-.9,0L35.874,54.13l1.063-6a1,1,0,0,0-.3-0.9l-4.474-4.215,6.217-.873a1,1,0,0,0,.75-0.535l2.815-5.514,2.814,5.514a1,1,0,0,0,.75.535l6.218,0.873ZM44.944,12.022H26.966a1,1,0,0,0,0,2H44.944A1,1,0,0,0,44.944,12.022Zm0,14.024H26.966a1,1,0,0,0,0,2H44.944A1,1,0,0,0,44.944,26.046ZM20.553,7.255a1,1,0,0,0-1.407.107l-6.241,7.3L9.088,11.793a1,1,0,0,0-1.2,1.6l4.565,3.434a0.995,0.995,0,0,0,1.357-.15l6.849-8.014A1,1,0,0,0,20.553,7.255Zm0,14.023a1,1,0,0,0-1.407.108l-6.241,7.3-3.817-2.87a1,1,0,0,0-1.2,1.6l4.565,3.434a0.995,0.995,0,0,0,1.357-.15l6.849-8.014A1,1,0,0,0,20.553,21.279ZM19.146,36.414l-6.241,7.3-3.817-2.87a1,1,0,0,0-1.2,1.6l4.565,3.434a1,1,0,0,0,1.357-.151l6.849-8.013A1,1,0,1,0,19.146,36.414Zm7.82,15.677H12.16A10.189,10.189,0,0,1,2,41.9V12.2A10.189,10.189,0,0,1,12.16,2.005H41.772A10.19,10.19,0,0,1,51.936,12.2V36.144a1,1,0,1,0,2,0V12.2A12.193,12.193,0,0,0,41.772,0H12.16A12.193,12.193,0,0,0,0,12.2V41.9a12.193,12.193,0,0,0,12.161,12.2H26.966A1,1,0,0,0,26.966,52.091Z"/>
</svg>
